<svg width="100" height="100" viewBox="0 0 100 100" fill="none" xmlns="http://www.w3.org/2000/svg">
<path opacity="0.1" d="M41.6667 91.6667C25.9532 91.6667 18.0965 91.6667 13.2149 86.785C8.33337 81.9037 8.33337 78.2133 8.33337 62.5" stroke="white" stroke-width="6" stroke-linecap="round"/>
<path opacity="0.1" d="M91.6667 62.5C91.6667 78.2133 91.6667 81.9037 86.785 86.785C81.9038 91.6667 74.0467 91.6667 58.3334 91.6667" stroke="white" stroke-width="6" stroke-linecap="round"/>
<path opacity="0.1" d="M58.3334 8.33337C74.0467 8.33337 81.9038 8.33337 86.785 13.2149C91.6667 18.0965 91.6667 21.7865 91.6667 37.5" stroke="white" stroke-width="6" stroke-linecap="round"/>
<path opacity="0.1" d="M41.6667 8.33337C25.9532 8.33337 18.0965 8.33337 13.2149 13.2149C8.33337 18.0965 8.33337 21.7865 8.33337 37.5" stroke="white" stroke-width="6" stroke-linecap="round"/>
<path opacity="0.8" d="M24.5518 58.5825C22.0729 55.707 20.8334 54.2691 20.8334 50C20.8334 45.7308 22.0728 44.2929 24.5518 41.4175C29.5016 35.6759 37.8029 29.1666 50 29.1666C62.1971 29.1666 70.4984 35.6759 75.4484 41.4175C77.9271 44.2929 79.1667 45.7308 79.1667 50C79.1667 54.2691 77.9271 55.707 75.4484 58.5825C70.4984 64.3241 62.1971 70.8333 50 70.8333C37.8029 70.8333 29.5016 64.3241 24.5518 58.5825Z" stroke="white" stroke-width="6"/>
<path opacity="0.8" d="M50 58.3333C54.6023 58.3333 58.3333 54.6023 58.3333 50C58.3333 45.3976 54.6023 41.6666 50 41.6666C45.3976 41.6666 41.6666 45.3976 41.6666 50C41.6666 54.6023 45.3976 58.3333 50 58.3333Z" stroke="white" stroke-width="6"/>
</svg>
