<svg width="33" height="32" viewBox="0 0 33 32" fill="none" xmlns="http://www.w3.org/2000/svg">
<path d="M3.16602 17.9167C3.16602 12.8883 3.16602 10.3742 4.72811 8.81209C6.29022 7.25 8.80436 7.25 13.8327 7.25H19.166C24.1943 7.25 26.7085 7.25 28.2705 8.81209C29.8327 10.3742 29.8327 12.8883 29.8327 17.9167C29.8327 22.9449 29.8327 25.4592 28.2705 27.0212C26.7085 28.5833 24.1943 28.5833 19.166 28.5833H13.8327C8.80436 28.5833 6.29022 28.5833 4.72811 27.0212C3.16602 25.4592 3.16602 22.9449 3.16602 17.9167Z" stroke="white" stroke-width="2"/>
<path opacity="0.5" d="M5.81641 8C5.96631 6.75864 6.27927 5.90079 6.93266 5.24968C8.18673 4 10.2051 4 14.2419 4H18.5235C22.5603 4 24.5787 4 25.8327 5.24968C26.4862 5.90079 26.7991 6.75864 26.949 8" stroke="white" stroke-width="2"/>
<path opacity="0.5" d="M23.834 15.25C24.9386 15.25 25.834 14.3546 25.834 13.25C25.834 12.1454 24.9386 11.25 23.834 11.25C22.7294 11.25 21.834 12.1454 21.834 13.25C21.834 14.3546 22.7294 15.25 23.834 15.25Z" stroke="white" stroke-width="2"/>
<path opacity="0.5" d="M3.16602 18.5834L5.50147 16.54C6.7165 15.4769 8.54772 15.5378 9.68934 16.6794L15.4089 22.399C16.3252 23.3154 17.7676 23.4404 18.8279 22.6952L19.2255 22.4158C20.7511 21.3436 22.8152 21.4678 24.2013 22.7153L28.4993 26.5834" stroke="white" stroke-width="2" stroke-linecap="round"/>
</svg>
