<svg width="18" height="18" viewBox="0 0 18 18" fill="none" xmlns="http://www.w3.org/2000/svg">
<path d="M5.40351 5.67174C5.63642 5.46617 5.65859 5.1107 5.45302 4.87778C5.24744 4.64487 4.89198 4.6227 4.65906 4.82828C3.29757 6.02994 2.4375 7.78988 2.4375 9.75C2.4375 10.0607 2.68934 10.3125 3 10.3125C3.31066 10.3125 3.5625 10.0607 3.5625 9.75C3.5625 8.12603 4.27371 6.66891 5.40351 5.67174Z" fill="white"/>
<path d="M13.341 4.82828C13.1081 4.6227 12.7526 4.64487 12.547 4.87778C12.3414 5.1107 12.3636 5.46617 12.5965 5.67174C13.7263 6.66891 14.4375 8.12603 14.4375 9.75C14.4375 10.0607 14.6894 10.3125 15 10.3125C15.3107 10.3125 15.5625 10.0607 15.5625 9.75C15.5625 7.78988 14.7024 6.02994 13.341 4.82828Z" fill="white"/>
<path d="M7.64019 15.0163C7.33936 14.9388 7.0327 15.1199 6.95527 15.4208C6.87784 15.7216 7.05895 16.0283 7.35981 16.1057C7.88469 16.2408 8.43436 16.3125 9.00001 16.3125C9.56566 16.3125 10.1153 16.2408 10.6402 16.1057C10.9411 16.0283 11.1222 15.7216 11.0447 15.4208C10.9673 15.1199 10.6607 14.9388 10.3598 15.0163C9.92581 15.1279 9.47026 15.1875 9.00001 15.1875C8.52976 15.1875 8.07421 15.1279 7.64019 15.0163Z" fill="white"/>
<path d="M6.75 4.5C6.75 5.74264 7.75732 6.75 9 6.75C10.2427 6.75 11.25 5.74264 11.25 4.5C11.25 3.25736 10.2427 2.25 9 2.25C7.75732 2.25 6.75 3.25736 6.75 4.5Z" fill="white"/>
<path d="M6.75 4.5C6.75 5.74264 7.75732 6.75 9 6.75C10.2427 6.75 11.25 5.74264 11.25 4.5C11.25 3.25736 10.2427 2.25 9 2.25C7.75732 2.25 6.75 3.25736 6.75 4.5Z" fill="url(#paint0_linear_1_55)"/>
<path d="M1.875 13.5C1.875 14.7427 2.88236 15.75 4.125 15.75C5.36764 15.75 6.375 14.7427 6.375 13.5C6.375 12.2573 5.36764 11.25 4.125 11.25C2.88236 11.25 1.875 12.2573 1.875 13.5Z" fill="white"/>
<path d="M1.875 13.5C1.875 14.7427 2.88236 15.75 4.125 15.75C5.36764 15.75 6.375 14.7427 6.375 13.5C6.375 12.2573 5.36764 11.25 4.125 11.25C2.88236 11.25 1.875 12.2573 1.875 13.5Z" fill="url(#paint1_linear_1_55)"/>
<path d="M13.875 15.75C12.6323 15.75 11.625 14.7427 11.625 13.5C11.625 12.2573 12.6323 11.25 13.875 11.25C15.1177 11.25 16.125 12.2573 16.125 13.5C16.125 14.7427 15.1177 15.75 13.875 15.75Z" fill="white"/>
<path d="M13.875 15.75C12.6323 15.75 11.625 14.7427 11.625 13.5C11.625 12.2573 12.6323 11.25 13.875 11.25C15.1177 11.25 16.125 12.2573 16.125 13.5C16.125 14.7427 15.1177 15.75 13.875 15.75Z" fill="url(#paint2_linear_1_55)"/>
<defs>
<linearGradient id="paint0_linear_1_55" x1="6.75" y1="4.5" x2="11.25" y2="4.5" gradientUnits="userSpaceOnUse">
<stop stop-color="#7F4FAB"/>
<stop offset="1" stop-color="#EC9EA5"/>
</linearGradient>
<linearGradient id="paint1_linear_1_55" x1="1.875" y1="13.5" x2="6.375" y2="13.5" gradientUnits="userSpaceOnUse">
<stop stop-color="#7F4FAB"/>
<stop offset="1" stop-color="#EC9EA5"/>
</linearGradient>
<linearGradient id="paint2_linear_1_55" x1="11.625" y1="13.5" x2="16.125" y2="13.5" gradientUnits="userSpaceOnUse">
<stop stop-color="#7F4FAB"/>
<stop offset="1" stop-color="#EC9EA5"/>
</linearGradient>
</defs>
</svg>
